<svg xmlns="http://www.w3.org/2000/svg" width="245.7" height="107.5" viewBox="0 0 245.7 107.5"><path d="M53.7 0c-2.9 0-5.8.2-8.6.7v27.4H34.2V3.7C20.2 9.2 9 20.4 3.6 34.5h69.8v38.9H34.2V51.7h10.9v10.7h17.3V45.3H.7c-.5 2.8-.7 5.6-.7 8.4 0 29.7 24.1 53.7 53.7 53.7 29.7 0 53.7-24.1 53.7-53.7.1-29.6-24-53.7-53.7-53.7zM132 76.9V29h9.2v20.6c1.5-2.9 5.2-4.4 9.1-4.4 8 0 15 6.3 15 16.3 0 9.8-7 16.1-15 16.1-3.8 0-7.6-1.7-9.1-4.5v3.8H132zm16.5-8.1c3.9 0 7.2-2.9 7.2-7.5 0-4.4-3.2-7.4-7.2-7.4-3.8 0-7.2 2.7-7.2 7.4 0 4.4 3.4 7.5 7.2 7.5zm64.6-22.9h10.7l4.6 6.8 4.6-6.8h10.7l-10.2 14.2 12.1 16.8H235l-6.6-9.5-6.6 9.5h-10.7l12.2-16.8-10.2-14.2zM201 47l1.4-2.1-4.9-3.1-1.3 2.1c-2.1-.9-4.5-1.4-6.9-1.4-8.9 0-17 6.8-17 17.5 0 5.3 2.1 9.7 5.3 12.8l-1.9 2.9 4.9 3.1 1.8-2.9c2.1 1 4.5 1.5 6.9 1.5 9.1 0 17-7 17-17.5 0-5.5-2.1-9.9-5.3-12.9zm-20 12.9c0-5.4 4-8.8 8.2-8.8.7 0 1.4.1 2.1.3L182.5 65c-.9-1.4-1.5-3.1-1.5-5.1zm8.2 8.9c-.7 0-1.4-.1-2.1-.3l8.9-13.8c1 1.4 1.5 3.2 1.5 5.2.1 5.3-4 8.9-8.3 8.9z" fill="#2979ff"/></svg>